<svg xmlns="http://www.w3.org/2000/svg" width="170" height="22" viewBox="0 0 170 22">
    <g fill="#1F1F1F" fill-rule="evenodd">
        <path d="M14.173 15.349H.802a.5.5 0 0 1-.449-.72L7.061.945a.5.5 0 0 1 .898 0l6.663 13.685a.5.5 0 0 1-.45.719zm1.976-1.117V.524a.5.5 0 0 1 .498-.5L23.61 0l6.963.024a.5.5 0 0 1 .498.5v13.708a.5.5 0 0 1-.826.379l-6.308-5.438a.5.5 0 0 0-.653 0l-6.308 5.438a.5.5 0 0 1-.827-.379zM36.188 15.349c-.315 0-.483-.28-.357-.559L42.279.328a.49.49 0 0 1 .358-.236h.21a.49.49 0 0 1 .357.236l6.404 14.462c.127.28-.041.559-.356.559h-1.323c-.252 0-.4-.13-.483-.322l-1.303-2.944h-6.867c-.42.988-.86 1.955-1.28 2.944a.528.528 0 0 1-.483.322h-1.324zm3.906-5.114h5.25l-2.583-5.888h-.105l-2.562 5.888zm10.878 4.706c0 .214.19.408.4.408h1.092c.357 0 .483-.13.483-.408V9.697c.104-.3 1.008-1.289 2.33-1.289 1.093 0 1.743.752 1.743 2.127v4.406c0 .214.168.408.4.408h1.197c.21 0 .399-.194.399-.408v-4.32c0-2.234-.945-4.082-3.508-4.082-1.68 0-2.793 1.031-2.94 1.203l-.252-.73a.342.342 0 0 0-.336-.259h-.608a.418.418 0 0 0-.4.409v7.779zm13.125.107l-2.813 6.167c-.148.301.041.58.357.58h1.26c.167 0 .293-.129.356-.258l6.426-14.225c.147-.28-.02-.559-.357-.559H68.13c-.189 0-.357.043-.44.237l-2.52 5.716h-.022L62.543 6.99a.456.456 0 0 0-.356-.237H60.8c-.316 0-.483.28-.358.56l3.654 7.735zm8.904.3c.042.13.19.216.358.216h.105c.168 0 .293-.086.335-.194l2.563-5.737h.02l2.584 5.737c.041.108.189.194.357.194h.084c.189 0 .336-.086.377-.215l2.457-8.101c.127-.28-.02-.495-.314-.495h-.82c-.23 0-.546 0-.65.258l-1.386 4.77h-.022l-2.226-5.028c-.041-.107-.167-.214-.356-.214h-.126c-.168 0-.316.107-.357.214l-2.247 5.007h-.021l-1.407-4.749c-.043-.15-.231-.258-.379-.258h-1.134c-.294 0-.42.215-.294.495l2.5 8.1zm11.172-.407c0 .214.19.408.4.408h1.197c.273 0 .42-.172.42-.408V9.76c.105-.364.987-1.353 2.267-1.353 1.093 0 1.786.774 1.786 2.17v4.363c0 .214.168.408.398.408h1.176c.21 0 .4-.194.4-.408v-4.32c0-2.342-1.135-4.082-3.507-4.082-1.344 0-2.31.773-2.52.924V.715a.418.418 0 0 0-.4-.408h-1.218a.418.418 0 0 0-.398.408v14.226zm10.06-3.89c0-2.428 1.68-4.512 4.2-4.512 2.183 0 3.863 1.676 3.863 3.975 0 .15-.02.43-.042.58a.39.39 0 0 1-.378.365h-5.712c.064 1.16 1.05 2.3 2.415 2.3.757 0 1.45-.344 1.87-.623.252-.15.398-.237.567-.022l.587.817c.148.172.21.343-.041.558-.61.538-1.701 1.075-3.108 1.075-2.541 0-4.221-2.042-4.221-4.513zm2.036-.945h4.075c-.063-1.032-.903-1.913-1.932-1.913a2.142 2.142 0 0 0-2.143 1.913zm8.043 4.835c0 .214.19.408.4.408h1.007c.337 0 .568-.043.568-.408V9.483a2.208 2.208 0 0 1 1.89-1.053c.272 0 .587.086.713.15.19.086.4.043.504-.193l.504-1.053c.231-.58-.734-.795-1.532-.795a2.978 2.978 0 0 0-2.457 1.246l-.232-.73c-.042-.173-.21-.302-.357-.302h-.608a.418.418 0 0 0-.4.409v7.779zm6.385-3.89c0-2.428 1.68-4.512 4.2-4.512 2.183 0 3.863 1.676 3.863 3.975 0 .15-.02.43-.041.58a.39.39 0 0 1-.378.365h-5.712c.063 1.16 1.05 2.3 2.414 2.3.756 0 1.45-.344 1.87-.623.252-.15.398-.237.567-.022l.587.817c.148.172.21.343-.041.558-.61.538-1.701 1.075-3.108 1.075-2.542 0-4.222-2.042-4.222-4.513zm2.037-.945h4.074c-.064-1.032-.904-1.913-1.933-1.913a2.142 2.142 0 0 0-2.141 1.913zm10.08 5.157c.042.172.21.3.378.3h.336c.146 0 .314-.107.356-.236l3.633-10.68h.106l3.695 10.68c.042.13.21.237.357.237h.337a.405.405 0 0 0 .377-.301l3.97-14.44c.083-.301-.085-.516-.379-.516h-1.406c-.169 0-.337.15-.379.3l-2.499 9.864h-.083L128.148.328c-.042-.128-.19-.236-.358-.236h-.378c-.168 0-.315.108-.357.236l-3.423 10.143h-.084l-2.54-9.863c-.042-.15-.21-.301-.379-.301h-1.407c-.293 0-.462.215-.377.516l3.969 14.44zm13.817-4.233c0-2.429 1.89-4.491 4.243-4.491 2.352 0 4.242 2.062 4.242 4.49 0 2.472-1.89 4.535-4.243 4.535-2.351 0-4.242-2.063-4.242-4.534zm1.87 0c0 1.482 1.05 2.686 2.373 2.686 1.322 0 2.373-1.204 2.373-2.686 0-1.44-1.05-2.622-2.374-2.622-1.322 0-2.373 1.182-2.373 2.622zm8.714 3.91c0 .215.19.409.4.409h1.007c.336 0 .567-.043.567-.408V9.483a2.208 2.208 0 0 1 1.89-1.053c.273 0 .588.086.714.15.19.086.4.043.505-.193l.504-1.053c.23-.58-.736-.795-1.534-.795a2.978 2.978 0 0 0-2.457 1.246l-.23-.73c-.042-.173-.21-.302-.357-.302h-.61a.418.418 0 0 0-.399.409v7.779zm7.056 0c0 .215.19.409.4.409h1.218c.21 0 .398-.194.398-.408v-3.76l3.802 3.996a.527.527 0 0 0 .377.172h1.722c.358 0 .42-.365.232-.559l-4.116-4.212 3.486-3.244c.189-.172.126-.58-.231-.58h-1.47c-.21 0-.379.128-.525.257l-3.276 3.009V.715a.418.418 0 0 0-.4-.408h-1.218a.418.418 0 0 0-.398.408v14.226zm9.43-.257c.44.365 1.364.88 2.772.88 1.868 0 3.107-1.181 3.107-2.513 0-1.612-1.26-2.278-2.793-2.966-.819-.365-1.344-.601-1.344-1.16 0-.323.231-.645.945-.645.798 0 1.722.451 1.722.451a.436.436 0 0 0 .546-.171l.379-.731c.126-.215.02-.494-.168-.623-.42-.28-1.302-.666-2.478-.666-2.017 0-2.877 1.289-2.877 2.363 0 1.419 1.091 2.235 2.393 2.815 1.155.538 1.618.817 1.618 1.397 0 .473-.4.73-1.03.73-1.029 0-1.952-.558-1.952-.558-.21-.129-.441-.065-.525.107l-.441.838c-.084.172 0 .366.126.452z"/>
    </g>
</svg>
